# Blender v2.80 (sub 75) OBJ File: 'picture_frames.blend'
# www.blender.org
o picture_frame_1_LOD0
v -0.350000 -0.250000 0.000000
v 0.350000 -0.250000 -0.000000
v -0.350000 0.250000 0.000000
v 0.350000 0.250000 -0.000000
v -0.330013 0.230013 0.015000
v -0.330013 -0.230013 0.015000
v 0.330013 -0.230013 0.015000
v 0.330013 0.230013 0.015000
v -0.330013 0.230013 0.030000
v -0.330013 -0.230013 0.030000
v 0.330013 -0.230013 0.030000
v 0.330013 0.230013 0.030000
v -0.350000 0.250000 0.030000
v -0.350000 -0.250000 0.030000
v 0.350000 -0.250000 0.030000
v 0.350000 0.250000 0.030000
vt 0.972355 0.319298
vt 0.025774 0.979047
vt 0.025774 0.319298
vt 0.056613 0.024733
vt 0.387258 0.043631
vt 0.387258 0.024733
vt 0.041660 0.112881
vt 0.401043 0.150676
vt 0.401043 0.112881
vt 0.401043 0.112881
vt 0.041660 0.150676
vt 0.041660 0.112881
vt 0.516412 0.171954
vt 0.042009 0.190851
vt 0.516413 0.190851
vt 0.387231 0.067084
vt 0.042217 0.088464
vt 0.056584 0.067083
vt 0.515885 0.210183
vt 0.027114 0.231563
vt 0.041479 0.210183
vt 0.056583 0.067084
vt 0.401597 0.088464
vt 0.387230 0.067083
vt 0.515885 0.210183
vt 0.027114 0.231562
vt 0.041479 0.210183
vt 0.387261 0.024733
vt 0.056611 0.043631
vt 0.056611 0.024733
vt 0.529299 0.290561
vt 0.026165 0.252766
vt 0.529299 0.252766
vt 0.529301 0.290561
vt 0.026163 0.252766
vt 0.026163 0.290561
vt 0.516419 0.171953
vt 0.042002 0.190850
vt 0.042002 0.171954
vt 0.564969 0.291065
vt 0.971216 0.020683
vt 0.971216 0.291065
vt 0.972355 0.979048
vt 0.056613 0.043630
vt 0.041660 0.150676
vt 0.401043 0.150676
vt 0.042009 0.171954
vt 0.401596 0.088464
vt 0.530251 0.231562
vt 0.042217 0.088464
vt 0.530251 0.231562
vt 0.387261 0.043630
vt 0.026165 0.290561
vt 0.529301 0.252766
vt 0.516419 0.190851
vt 0.564969 0.020683
vn 0.0000 -0.0000 1.0000
vn -1.0000 0.0000 0.0000
vn 1.0000 0.0000 -0.0000
vn 0.0000 1.0000 0.0000
vn 0.0000 -1.0000 0.0000
vn -0.0000 0.0000 -1.0000
s off
f 7/1/1 5/2/1 6/3/1
f 7/4/2 12/5/2 8/6/2
f 1/7/2 13/8/2 3/9/2
f 4/10/3 15/11/3 2/12/3
f 7/13/4 10/14/4 11/15/4
f 9/16/1 14/17/1 10/18/1
f 10/19/1 15/20/1 11/21/1
f 11/22/1 16/23/1 12/24/1
f 12/25/1 13/26/1 9/27/1
f 5/28/3 10/29/3 6/30/3
f 4/31/4 13/32/4 16/33/4
f 2/34/5 14/35/5 1/36/5
f 8/37/5 9/38/5 5/39/5
f 4/40/6 1/41/6 3/42/6
f 7/1/1 8/43/1 5/2/1
f 7/4/2 11/44/2 12/5/2
f 1/7/2 14/45/2 13/8/2
f 4/10/3 16/46/3 15/11/3
f 7/13/4 6/47/4 10/14/4
f 9/16/1 13/48/1 14/17/1
f 10/19/1 14/49/1 15/20/1
f 11/22/1 15/50/1 16/23/1
f 12/25/1 16/51/1 13/26/1
f 5/28/3 9/52/3 10/29/3
f 4/31/4 3/53/4 13/32/4
f 2/34/5 15/54/5 14/35/5
f 8/37/5 12/55/5 9/38/5
f 4/40/6 2/56/6 1/41/6
