# Blender v2.80 (sub 75) OBJ File: 'picture_frames.blend'
# www.blender.org
o picture_frame_3_LOD0
v -0.254583 -0.124231 -0.018750
v 0.254583 -0.124231 -0.018750
v -0.254583 0.124231 -0.018750
v 0.254583 0.124231 -0.018750
v -0.234596 0.104244 -0.003750
v -0.234596 -0.104244 -0.003750
v 0.234596 -0.104244 -0.003750
v 0.234596 0.104244 -0.003750
v -0.234596 0.104244 0.011250
v -0.234596 -0.104244 0.011250
v 0.234596 -0.104244 0.011250
v 0.234596 0.104244 0.011250
v -0.254583 0.124231 0.011250
v -0.254583 -0.124231 0.011250
v 0.254583 -0.124231 0.011250
v 0.254583 0.124231 0.011250
vt 0.061869 0.312093
vt 0.031480 0.099408
vt 0.031481 0.312093
vt 0.318000 0.516789
vt 0.064537 0.456012
vt 0.064537 0.516789
vt 0.064537 0.516789
vt 0.318000 0.456012
vt 0.318000 0.516789
vt 0.968702 0.510547
vt 0.938313 0.031917
vt 0.938313 0.510547
vt 0.297425 0.378514
vt 0.064351 0.419005
vt 0.084740 0.378514
vt 0.874558 0.378348
vt 0.375532 0.418839
vt 0.395921 0.378348
vt 0.084741 0.378514
vt 0.317814 0.419005
vt 0.297425 0.378513
vt 0.395923 0.378349
vt 0.894945 0.418839
vt 0.874555 0.378348
vt 0.061869 0.312093
vt 0.031480 0.099408
vt 0.061868 0.099408
vt 0.375528 0.517064
vt 0.894938 0.456288
vt 0.375528 0.456286
vt 0.375528 0.517063
vt 0.894938 0.456287
vt 0.894938 0.517065
vt 0.968702 0.510547
vt 0.938312 0.031917
vt 0.968702 0.031917
vt 0.103906 0.341138
vt 0.889829 0.031458
vt 0.889829 0.341138
vt 0.030849 0.551640
vt 0.969849 0.968890
vt 0.030849 0.968890
vt 0.061869 0.099408
vt 0.318000 0.456012
vt 0.064537 0.456012
vt 0.968701 0.031917
vt 0.317814 0.419005
vt 0.894947 0.418839
vt 0.064352 0.419005
vt 0.375534 0.418839
vt 0.031480 0.312093
vt 0.894938 0.517064
vt 0.375528 0.456287
vt 0.938313 0.510547
vt 0.103906 0.031458
vt 0.969849 0.551640
vn -1.0000 0.0000 0.0000
vn 1.0000 0.0000 -0.0000
vn 0.0000 1.0000 0.0000
vn 0.0000 -0.0000 1.0000
vn 0.0000 -1.0000 0.0000
vn -0.0000 0.0000 -1.0000
s off
f 8/1/1 11/2/1 12/3/1
f 1/4/1 13/5/1 3/6/1
f 4/7/2 15/8/2 2/9/2
f 7/10/3 10/11/3 11/12/3
f 9/13/4 14/14/4 10/15/4
f 10/16/4 15/17/4 11/18/4
f 11/19/4 16/20/4 12/21/4
f 12/22/4 13/23/4 9/24/4
f 5/25/2 10/26/2 6/27/2
f 4/28/3 13/29/3 16/30/3
f 2/31/5 14/32/5 1/33/5
f 8/34/5 9/35/5 5/36/5
f 4/37/6 1/38/6 3/39/6
f 6/40/4 8/41/4 5/42/4
f 8/1/1 7/43/1 11/2/1
f 1/4/1 14/44/1 13/5/1
f 4/7/2 16/45/2 15/8/2
f 7/10/3 6/46/3 10/11/3
f 9/13/4 13/47/4 14/14/4
f 10/16/4 14/48/4 15/17/4
f 11/19/4 15/49/4 16/20/4
f 12/22/4 16/50/4 13/23/4
f 5/25/2 9/51/2 10/26/2
f 4/28/3 3/52/3 13/29/3
f 2/31/5 15/53/5 14/32/5
f 8/34/5 12/54/5 9/35/5
f 4/37/6 2/55/6 1/38/6
f 6/40/4 7/56/4 8/41/4
