# Blender v2.80 (sub 75) OBJ File: 'picture_frames.blend'
# www.blender.org
o picture_frame_4_LOD0
v -0.181736 -0.131988 -0.018750
v 0.181736 -0.131988 -0.018750
v -0.181736 0.131988 -0.018750
v 0.181736 0.131988 -0.018750
v -0.161749 0.112001 -0.003750
v -0.161749 -0.112001 -0.003750
v 0.161749 -0.112001 -0.003750
v 0.161749 0.112001 -0.003750
v -0.161749 0.112001 0.011250
v -0.161749 -0.112001 0.011250
v 0.161749 -0.112001 0.011250
v 0.161749 0.112001 0.011250
v -0.181736 0.131988 0.011250
v -0.181736 -0.131988 0.011250
v 0.181736 -0.131988 0.011250
v 0.181736 0.131988 0.011250
vt 0.447266 0.304688
vt 0.060547 0.259766
vt 0.060547 0.304688
vt 0.488016 0.054239
vt 0.944996 0.141690
vt 0.944996 0.054239
vt 0.944996 0.054239
vt 0.488016 0.141690
vt 0.488016 0.054239
vt 0.771923 0.354587
vt 0.815649 0.914608
vt 0.815649 0.354587
vt 0.909307 0.263466
vt 0.486927 0.205203
vt 0.521526 0.263465
vt 0.882462 0.911664
vt 0.940724 0.317042
vt 0.882462 0.351642
vt 0.521527 0.263466
vt 0.943907 0.205203
vt 0.909307 0.263465
vt 0.882462 0.351642
vt 0.940724 0.946264
vt 0.882462 0.911664
vt 0.060547 0.304688
vt 0.447266 0.259766
vt 0.447266 0.304688
vt 0.687687 0.349114
vt 0.058466 0.436565
vt 0.058466 0.349113
vt 0.687688 0.349113
vt 0.058466 0.436565
vt 0.687688 0.436565
vt 0.771923 0.914607
vt 0.815648 0.354587
vt 0.815649 0.914607
vt 0.063494 0.214686
vt 0.397766 0.045647
vt 0.397766 0.214686
vt 0.053639 0.496380
vt 0.701437 0.944939
vt 0.053639 0.944939
vt 0.447266 0.259766
vt 0.488016 0.141690
vt 0.944995 0.141690
vt 0.771923 0.914608
vt 0.943907 0.205203
vt 0.940724 0.946264
vt 0.486927 0.205203
vt 0.940724 0.317042
vt 0.060547 0.259766
vt 0.687687 0.436565
vt 0.058466 0.349114
vt 0.771923 0.354587
vt 0.063494 0.045647
vt 0.701437 0.496380
vn -1.0000 0.0000 0.0000
vn 1.0000 -0.0000 -0.0000
vn 0.0000 1.0000 0.0000
vn 0.0000 -0.0000 1.0000
vn 0.0000 -1.0000 0.0000
vn -0.0000 0.0000 -1.0000
s off
f 7/1/1 12/2/1 8/3/1
f 1/4/1 13/5/1 3/6/1
f 4/7/2 15/8/2 2/9/2
f 7/10/3 10/11/3 11/12/3
f 9/13/4 14/14/4 10/15/4
f 10/16/4 15/17/4 11/18/4
f 11/19/4 16/20/4 12/21/4
f 12/22/4 13/23/4 9/24/4
f 5/25/2 10/26/2 6/27/2
f 3/28/3 16/29/3 4/30/3
f 1/31/5 15/32/5 14/33/5
f 5/34/5 12/35/5 9/36/5
f 4/37/6 1/38/6 3/39/6
f 6/40/4 8/41/4 5/42/4
f 7/1/1 11/43/1 12/2/1
f 1/4/1 14/44/1 13/5/1
f 4/7/2 16/45/2 15/8/2
f 7/10/3 6/46/3 10/11/3
f 9/13/4 13/47/4 14/14/4
f 10/16/4 14/48/4 15/17/4
f 11/19/4 15/49/4 16/20/4
f 12/22/4 16/50/4 13/23/4
f 5/25/2 9/51/2 10/26/2
f 3/28/3 13/52/3 16/29/3
f 1/31/5 2/53/5 15/32/5
f 5/34/5 8/54/5 12/35/5
f 4/37/6 2/55/6 1/38/6
f 6/40/4 7/56/4 8/41/4
