# Blender v2.80 (sub 75) OBJ File: 'picture_frames.blend'
# www.blender.org
o picture_frame_2_LOD1
v -0.156228 -0.234354 -0.018750
v 0.156228 -0.234354 -0.018750
v -0.156228 0.234354 -0.018750
v 0.156228 0.234354 -0.018750
v -0.156228 0.234354 0.011250
v -0.156228 -0.234354 0.011250
v 0.156228 -0.234354 0.011250
v 0.156228 0.234354 0.011250
vt 0.777894 0.025250
vt 0.716980 0.976954
vt 0.777894 0.976954
vt 0.777894 0.976954
vt 0.716979 0.025250
vt 0.777894 0.025250
vt 0.919448 0.344772
vt 0.858533 0.979209
vt 0.919448 0.979210
vt 0.919448 0.344772
vt 0.858533 0.979210
vt 0.858533 0.344772
vt 0.812229 0.311376
vt 0.980876 0.020734
vt 0.980876 0.311376
vt 0.024307 0.025640
vt 0.658747 0.977345
vt 0.024307 0.977345
vt 0.716980 0.025250
vt 0.716980 0.976954
vt 0.858534 0.344772
vt 0.919448 0.979209
vt 0.812229 0.020734
vt 0.658747 0.025640
vn -1.0000 0.0000 0.0000
vn 1.0000 0.0000 -0.0000
vn 0.0000 1.0000 -0.0000
vn 0.0000 -1.0000 0.0000
vn -0.0000 0.0000 -1.0000
vn 0.0000 -0.0000 1.0000
s off
f 1/1/1 5/2/1 3/3/1
f 4/4/2 7/5/2 2/6/2
f 3/7/3 8/8/3 4/9/3
f 1/10/4 7/11/4 6/12/4
f 4/13/5 1/14/5 3/15/5
f 6/16/6 8/17/6 5/18/6
f 1/1/1 6/19/1 5/2/1
f 4/4/2 8/20/2 7/5/2
f 3/7/3 5/21/3 8/8/3
f 1/10/4 2/22/4 7/11/4
f 4/13/5 2/23/5 1/14/5
f 6/16/6 7/24/6 8/17/6
