# Blender v2.80 (sub 75) OBJ File: 'picture_frames.blend'
# www.blender.org
o picture_frame_2_LOD0
v -0.156228 -0.234354 -0.018750
v 0.156228 -0.234354 -0.018750
v -0.156228 0.234354 -0.018750
v 0.156228 0.234354 -0.018750
v -0.136242 0.214367 -0.003750
v -0.136242 -0.214367 -0.003750
v 0.136242 -0.214367 -0.003750
v 0.136242 0.214367 -0.003750
v -0.136242 0.214367 0.011250
v -0.136242 -0.214367 0.011250
v 0.136242 -0.214367 0.011250
v 0.136242 0.214367 0.011250
v -0.156228 0.234354 0.011250
v -0.156228 -0.234354 0.011250
v 0.156228 -0.234354 0.011250
v 0.156228 0.234354 0.011250
vt 0.031784 0.029197
vt 0.460377 0.062726
vt 0.031784 0.062726
vt 0.815694 0.031982
vt 0.882749 0.500542
vt 0.815694 0.500542
vt 0.815694 0.500542
vt 0.882749 0.031982
vt 0.815694 0.031982
vt 0.504152 0.062659
vt 0.776550 0.029131
vt 0.776550 0.062659
vt 0.968501 0.479815
vt 0.923827 0.031239
vt 0.968502 0.051220
vt 0.781357 0.168168
vt 0.736683 0.460545
vt 0.781358 0.440564
vt 0.968501 0.051220
vt 0.923827 0.499796
vt 0.968502 0.479815
vt 0.781357 0.440564
vt 0.736683 0.148187
vt 0.781358 0.168168
vt 0.031781 0.029198
vt 0.460379 0.062726
vt 0.460379 0.029198
vt 0.634246 0.461218
vt 0.701302 0.148861
vt 0.634246 0.148861
vt 0.634246 0.461219
vt 0.701301 0.148860
vt 0.701301 0.461219
vt 0.504151 0.062658
vt 0.776551 0.029130
vt 0.504151 0.029132
vt 0.629300 0.968288
vt 0.967089 0.532470
vt 0.967089 0.968288
vt 0.031171 0.092379
vt 0.588300 0.968984
vt 0.031171 0.968984
vt 0.460377 0.029198
vt 0.882749 0.031982
vt 0.882749 0.500542
vt 0.504152 0.029130
vt 0.923827 0.499796
vt 0.736683 0.148187
vt 0.923827 0.031239
vt 0.736683 0.460544
vt 0.031781 0.062725
vt 0.701301 0.461218
vt 0.634246 0.148860
vt 0.776551 0.062658
vt 0.629300 0.532470
vt 0.588300 0.092379
vn -1.0000 0.0000 0.0000
vn 1.0000 0.0000 -0.0000
vn 0.0000 1.0000 0.0000
vn 0.0000 -0.0000 1.0000
vn 0.0000 -1.0000 0.0000
vn -0.0000 0.0000 -1.0000
s off
f 8/1/1 11/2/1 12/3/1
f 1/4/1 13/5/1 3/6/1
f 4/7/2 15/8/2 2/9/2
f 6/10/3 11/11/3 7/12/3
f 9/13/4 14/14/4 10/15/4
f 10/16/4 15/17/4 11/18/4
f 11/19/4 16/20/4 12/21/4
f 12/22/4 13/23/4 9/24/4
f 5/25/2 10/26/2 6/27/2
f 3/28/3 16/29/3 4/30/3
f 1/31/5 15/32/5 14/33/5
f 5/34/5 12/35/5 9/36/5
f 4/37/6 1/38/6 3/39/6
f 6/40/4 8/41/4 5/42/4
f 8/1/1 7/43/1 11/2/1
f 1/4/1 14/44/1 13/5/1
f 4/7/2 16/45/2 15/8/2
f 6/10/3 10/46/3 11/11/3
f 9/13/4 13/47/4 14/14/4
f 10/16/4 14/48/4 15/17/4
f 11/19/4 15/49/4 16/20/4
f 12/22/4 16/50/4 13/23/4
f 5/25/2 9/51/2 10/26/2
f 3/28/3 13/52/3 16/29/3
f 1/31/5 2/53/5 15/32/5
f 5/34/5 8/54/5 12/35/5
f 4/37/6 2/55/6 1/38/6
f 6/40/4 7/56/4 8/41/4
