# Blender v2.80 (sub 75) OBJ File: 'picture_frames.blend'
# www.blender.org
o picture_frame_4_LOD1
v -0.181736 -0.131988 -0.018750
v 0.181736 -0.131988 -0.018750
v -0.181736 0.131988 -0.018750
v 0.181736 0.131988 -0.018750
v -0.181736 0.131988 0.011250
v -0.181736 -0.131988 0.011250
v 0.181736 -0.131988 0.011250
v 0.181736 0.131988 0.011250
vt 0.034740 0.026890
vt 0.706742 0.103261
vt 0.706742 0.026890
vt 0.706743 0.026890
vt 0.034740 0.103261
vt 0.034740 0.026890
vt 0.036637 0.237507
vt 0.961925 0.161136
vt 0.961925 0.237509
vt 0.036636 0.237508
vt 0.961926 0.161137
vt 0.036636 0.161136
vt 0.758465 0.113368
vt 0.970062 0.022848
vt 0.970062 0.113368
vt 0.040367 0.292558
vt 0.965660 0.964561
vt 0.040368 0.964561
vt 0.034740 0.103261
vt 0.706742 0.103261
vt 0.036637 0.161136
vt 0.961926 0.237508
vt 0.758465 0.022848
vt 0.965660 0.292558
vn -1.0000 0.0000 0.0000
vn 1.0000 -0.0000 -0.0000
vn 0.0000 1.0000 0.0000
vn 0.0000 -1.0000 0.0000
vn -0.0000 0.0000 -1.0000
vn 0.0000 -0.0000 1.0000
s off
f 1/1/1 5/2/1 3/3/1
f 4/4/2 7/5/2 2/6/2
f 3/7/3 8/8/3 4/9/3
f 1/10/4 7/11/4 6/12/4
f 4/13/5 1/14/5 3/15/5
f 6/16/6 8/17/6 5/18/6
f 1/1/1 6/19/1 5/2/1
f 4/4/2 8/20/2 7/5/2
f 3/7/3 5/21/3 8/8/3
f 1/10/4 2/22/4 7/11/4
f 4/13/5 2/23/5 1/14/5
f 6/16/6 7/24/6 8/17/6
